<svg xmlns="http://www.w3.org/2000/svg" viewBox="0 0 720 560" font-family="ui-monospace, SFMono-Regular, Menlo, monospace"><rect x="0" y="0" width="720" height="560" fill="#ffffff"/><defs><marker id="a" viewBox="0 0 10 10" refX="9" refY="5" markerWidth="7" markerHeight="7" orient="auto-start-reverse"><path d="M0,0 L10,5 L0,10 z" fill="#9ca3af"/></marker></defs><rect x="260" y="14" width="200" height="46" rx="8" fill="#f8fafc" stroke="#d1d5db" stroke-width="1"/><text x="360" y="34" text-anchor="middle" font-size="12.5" font-weight="600" fill="#1f2937">friends in DK and BR</text><text x="360" y="52" text-anchor="middle" font-size="10.5" fill="#6b7280">game client + browser</text><line x1="360" y1="60" x2="360" y2="100" stroke="#9ca3af" stroke-width="1.4" marker-end="url(#a)"/><text x="368" y="84" text-anchor="start" font-size="9.5" fill="#6b7280">game ports, HTTPS</text><rect x="30" y="100" width="660" height="400" rx="10" fill="#fbfcfd" stroke="#d1d5db" stroke-dasharray="5 4"/><text x="360" y="118" text-anchor="middle" font-size="10.5" fill="#6b7280">Oracle Cloud VM (ARM, Ubuntu)</text><rect x="92" y="122" width="536" height="36" rx="8" fill="#f8fafc" stroke="#d1d5db" stroke-width="1"/><text x="360" y="144.5" text-anchor="middle" font-size="11.5" font-weight="600" fill="#1f2937">iptables + Oracle security list</text><rect x="60" y="188" width="280" height="180" rx="10" fill="#fbfcfd" stroke="#d1d5db" stroke-dasharray="5 4"/><text x="200" y="206" text-anchor="middle" font-size="10.5" fill="#6b7280">pre-renewal, classic era</text><rect x="74" y="210" width="252" height="52" rx="8" fill="#f8fafc" stroke="#d1d5db" stroke-width="1"/><text x="200" y="230" text-anchor="middle" font-size="12.5" font-weight="600" fill="#1f2937">login · char · map</text><text x="200" y="248" text-anchor="middle" font-size="10.5" fill="#6b7280">rAthena, 2021 packet version</text><rect x="74" y="278" width="118" height="36" rx="8" fill="#f8fafc" stroke="#d1d5db" stroke-width="1"/><text x="133" y="300.5" text-anchor="middle" font-size="11.5" font-weight="600" fill="#1f2937">web api</text><rect x="208" y="278" width="118" height="36" rx="8" fill="#f8fafc" stroke="#d1d5db" stroke-width="1"/><text x="267" y="300.5" text-anchor="middle" font-size="11.5" font-weight="600" fill="#1f2937">MariaDB</text><text x="200" y="338" text-anchor="middle" font-size="10" fill="#6b7280">internal docker network,</text><text x="200" y="352" text-anchor="middle" font-size="10" fill="#6b7280">no public database port</text><line x1="260" y1="158" x2="260" y2="188" stroke="#9ca3af" stroke-width="1.4" marker-end="url(#a)"/><rect x="380" y="188" width="280" height="180" rx="10" fill="#fbfcfd" stroke="#d1d5db" stroke-dasharray="5 4"/><text x="520" y="206" text-anchor="middle" font-size="10.5" fill="#6b7280">renewal, modern era</text><rect x="394" y="210" width="252" height="52" rx="8" fill="#f8fafc" stroke="#d1d5db" stroke-width="1"/><text x="520" y="230" text-anchor="middle" font-size="12.5" font-weight="600" fill="#1f2937">login · char · map</text><text x="520" y="248" text-anchor="middle" font-size="10.5" fill="#6b7280">rAthena, 2026 packet version</text><rect x="394" y="278" width="118" height="36" rx="8" fill="#f8fafc" stroke="#d1d5db" stroke-width="1"/><text x="453" y="300.5" text-anchor="middle" font-size="11.5" font-weight="600" fill="#1f2937">web api</text><rect x="528" y="278" width="118" height="36" rx="8" fill="#f8fafc" stroke="#d1d5db" stroke-width="1"/><text x="587" y="300.5" text-anchor="middle" font-size="11.5" font-weight="600" fill="#1f2937">MariaDB</text><text x="520" y="338" text-anchor="middle" font-size="10" fill="#6b7280">internal docker network,</text><text x="520" y="352" text-anchor="middle" font-size="10" fill="#6b7280">no public database port</text><line x1="580" y1="158" x2="580" y2="188" stroke="#9ca3af" stroke-width="1.4" marker-end="url(#a)"/><rect x="60" y="406" width="280" height="66" rx="8" fill="#edf3f7" stroke="#3e6b89" stroke-width="1.5"/><text x="200" y="426" text-anchor="middle" font-size="12.5" font-weight="600" fill="#3e6b89">Caddy</text><text x="200" y="444" text-anchor="middle" font-size="10.5" fill="#6b7280">auto HTTPS, cookie login,</text><text x="200" y="459" text-anchor="middle" font-size="10.5" fill="#6b7280">client downloads</text><rect x="380" y="406" width="280" height="66" rx="8" fill="#edf3f7" stroke="#3e6b89" stroke-width="1.5"/><text x="520" y="426" text-anchor="middle" font-size="12.5" font-weight="600" fill="#3e6b89">status sidecar</text><text x="520" y="444" text-anchor="middle" font-size="10.5" fill="#6b7280">ports + one read only query</text><text x="520" y="459" text-anchor="middle" font-size="10.5" fill="#6b7280">per database every 15 s</text><polyline points="110,158 44,158 44,439 60,439" fill="none" stroke="#9ca3af" stroke-width="1.4" marker-end="url(#a)"/><text x="50" y="392" text-anchor="start" font-size="9.5" fill="#6b7280">HTTPS</text><line x1="380" y1="439" x2="340" y2="439" stroke="#9ca3af" stroke-width="1.4" stroke-dasharray="4 3" marker-end="url(#a)"/><text x="360" y="488" text-anchor="middle" font-size="9.5" fill="#6b7280">status.json</text></svg>